<svg xmlns="http://www.w3.org/2000/svg" viewBox="0 0 500 500"><g id="freepik--background-simple--inject-1"><path d="M352.39,219.48c-10.88-16.7-10.26-39.13-17.09-57.52s-17.44-36.42-31.8-50.23C268.36,78,226.31,94.48,182.38,106c-34.92,9.18-93.47,1.21-110.4,38.73-17.16,38,7.81,87.93,24.5,120.26,15.43,29.88,43.31,81,85.53,80.27,48.17-.79,60.6-71.92,106.8-46.69,36.9,20.15,89,35.11,119.37-6.14C440.4,248.72,370.35,247,352.39,219.48Z" style="fill:#FFC100"></path><path d="M352.39,219.48c-10.88-16.7-10.26-39.13-17.09-57.52s-17.44-36.42-31.8-50.23C268.36,78,226.31,94.48,182.38,106c-34.92,9.18-93.47,1.21-110.4,38.73-17.16,38,7.81,87.93,24.5,120.26,15.43,29.88,43.31,81,85.53,80.27,48.17-.79,60.6-71.92,106.8-46.69,36.9,20.15,89,35.11,119.37-6.14C440.4,248.72,370.35,247,352.39,219.48Z" style="fill:#fff;opacity:0.9"></path></g><g id="freepik--Shadow--inject-1"><ellipse id="freepik--path--inject-1" cx="250" cy="416.24" rx="193.89" ry="11.32" style="fill:#f5f5f5"></ellipse></g><g id="freepik--Stroller--inject-1"><path d="M116.24,402.3a1.57,1.57,0,0,1-.32-3.11l43.19-8.93,59.38-177.19a1.57,1.57,0,1,1,3,1L161.8,392.12a1.57,1.57,0,0,1-1.17,1l-44.07,9.11A1.22,1.22,0,0,1,116.24,402.3Z" style="fill:#263238"></path><path d="M172.59,245.12s16.4-11,21.91-18.36c3.76-5,18.18,8.9,18.18,8.9l-3.36,4.24s-6.37-.34-9.53-2.78c-.67,5.33-8.81,12.48-8.81,12.48Z" style="fill:#ff8b7b"></path><path d="M208.72,239.37c.47,1.42,2,4.44,3.59,2.91,2.92-2.81,6.24-3,7.76-4.33s1.69-3.52-.56-2.53-4.63.26-8.18-1C209,234.92,208.72,239.37,208.72,239.37Z" style="fill:#ff8b7b"></path><path d="M158.41,242.28s16.4-11,21.91-18.37c3.76-5,18.18,8.91,18.18,8.91l-3.36,4.24s-6.38-.35-9.53-2.78c-.67,5.33-8.81,12.47-8.81,12.47Z" style="fill:#ff8b7b"></path><path d="M194.54,236.53c.47,1.41,2,4.44,3.59,2.91,2.92-2.82,6.24-3,7.76-4.34s1.68-3.51-.56-2.53-4.64.26-8.18-1C194.78,232.08,194.54,236.53,194.54,236.53Z" style="fill:#ff8b7b"></path><path d="M148.22,247.45c8.51-12.38,33-23.55,44.38-16.4s28,7.08,24,16.4Z" style="fill:#FFC100"></path><path d="M148.22,247.45c8.51-12.38,33-23.55,44.38-16.4s28,7.08,24,16.4Z" style="fill:#fff;opacity:0.30000000000000004"></path><polygon points="160.31 391.62 172.23 356.06 105.54 364.68 117.4 400.73 160.31 391.62" style="fill:#FFC100"></polygon><polygon points="132.63 397.49 133.98 361 105.54 364.68 117.4 400.73 132.63 397.49" style="opacity:0.2"></polygon><path d="M114.48,182.11l-.16-1a72.8,72.8,0,0,1,7.54-.8l0,1A71,71,0,0,0,114.48,182.11Z" style="fill:#FFC100"></path><path d="M143.5,182.82a96.43,96.43,0,0,0-17.16-1.62v-1a96.6,96.6,0,0,1,17.34,1.64Z" style="fill:#FFC100"></path><path d="M122.05,183.82c-12.76.69-23,4.46-30.41,10.52-16.51,13.53-18.83,38.47-3.17,66.17l98.06-5.32-13-60C156.33,187.2,138.36,182.93,122.05,183.82Z" style="fill:#FFC100"></path><path d="M91.64,194.34c-16.51,13.53-18.83,38.47-3.17,66.17l98.06-5.32Z" style="opacity:0.2"></path><path d="M114.74,384.87c8.09,0,14.64,7.1,14.64,15.86s-6.55,15.85-14.64,15.85-14.65-7.1-14.65-15.85S106.65,384.87,114.74,384.87Z" style="fill:#263238"></path><path d="M117.4,392.26c4.32,0,7.82,3.79,7.82,8.47s-3.5,8.46-7.82,8.46-7.82-3.79-7.82-8.46S113.08,392.26,117.4,392.26Z" style="fill:#fff"></path><path d="M195.25,372.48c11.24,0,20.36,9.87,20.36,22s-9.12,22.05-20.36,22.05-20.38-9.87-20.38-22.05S184,372.48,195.25,372.48Z" style="fill:#263238"></path><path d="M195.24,396.13a1.57,1.57,0,0,1-1.23-.59l-25.27-31.76a1.57,1.57,0,1,1,2.46-2l25.27,31.76a1.57,1.57,0,0,1-1.23,2.55Z" style="fill:#263238"></path><path d="M199,382.75c6,0,10.87,5.28,10.87,11.78S205,406.3,199,406.3s-10.88-5.27-10.88-11.77S192.94,382.75,199,382.75Z" style="fill:#fff"></path><path d="M216.6,274.39H92.49A13.51,13.51,0,0,1,79,260.92h0a13.51,13.51,0,0,1,13.47-13.47H216.6a13.51,13.51,0,0,1,13.47,13.47h0A13.51,13.51,0,0,1,216.6,274.39Z" style="fill:#FFC100"></path><path d="M122.39,274.39H92.49A13.51,13.51,0,0,1,79,260.92h0a13.51,13.51,0,0,1,13.47-13.47h29.9a13.51,13.51,0,0,1,13.47,13.47h0A13.51,13.51,0,0,1,122.39,274.39Z" style="opacity:0.2"></path><path d="M186.53,255.19c.46-20.76-1.44-44.84-9.17-61.64,0,0-3.75-2.86-10.08-1.08C173.58,194,186.53,255.19,186.53,255.19Z" style="fill:#263238"></path><path d="M191.46,255.19a4.94,4.94,0,1,1-4.93-4.94A4.93,4.93,0,0,1,191.46,255.19Z" style="fill:#fff"></path><path d="M189.65,255.19a2.66,2.66,0,1,1-2.66-2.66A2.66,2.66,0,0,1,189.65,255.19Z" style="fill:#FFC100"></path><path d="M241.21,215.14H198.75a1.57,1.57,0,0,1,0-3.14h42.46a1.57,1.57,0,0,1,0,3.14Z" style="fill:#263238"></path><path d="M211.14,276H95.54a1.57,1.57,0,0,1,0-3.14h115.6a1.57,1.57,0,1,1,0,3.14Z" style="fill:#263238"></path><path d="M179.82,312.37a24.13,24.13,0,0,1-24.1-24.1,23.86,23.86,0,0,1,5.12-14.85,1.57,1.57,0,1,1,2.47,1.94,20.74,20.74,0,0,0-4.45,12.91,21,21,0,0,0,28.47,19.57,1.57,1.57,0,0,1,2,.91,1.56,1.56,0,0,1-.9,2A24,24,0,0,1,179.82,312.37Z" style="fill:#263238"></path></g><g id="freepik--character-2--inject-1"><path d="M332.06,217.89c-5.78,1.69-6.7,9-4.9,12.27,0,0-7.32,10,6.63,9.06S338.51,216,332.06,217.89Z" style="fill:#FFC100"></path><path d="M332.06,217.89c-5.78,1.69-6.7,9-4.9,12.27,0,0-7.32,10,6.63,9.06S338.51,216,332.06,217.89Z" style="opacity:0.2"></path><path d="M341.91,138.09c-4.86-7.19-6.18-24.84,7.49-23.76,1.28-7.08,21-3.08,24.25,9.5s-3.42,29.5-3.42,29.5S354.13,156.13,341.91,138.09Z" style="fill:#263238"></path><path d="M369.57,146.8c10.4,1.06,25.35,6.44,27.82,12.4s-2.89,8-2.89,8,9.57,5.72,6.44,13.74-12.22.84-12.22.84,1.26,8.41-13.75,6.47-11.92-36.91-11.92-36.91Z" style="fill:#263238"></path><path d="M360.43,152.24c2.2,3,4.46,2.62,9.79,1.41s7-4,6.5-7.26-3.43-5.43-3.58-3C369,147.61,355.72,145.9,360.43,152.24Z" style="fill:#FFC100"></path><path d="M343,412.07c8.1-.63,13.55-6.19,13-12.08-.31-3.25,10.07-3.54,10.07-3.54-1.64,10.07.42,11.51,1.1,14.11s.51,5.48-1.64,5.53c-2.57.07-3.77-.42-7-.3-3.74.15-7.79.29-14.43.3C341.47,416.1,339.4,412.35,343,412.07Z" style="fill:#263238"></path><path d="M331.16,222.33s1.45,47.21,8.32,82.77c1.63,30.09,15.86,96.26,15.86,96.26a22.55,22.55,0,0,0,10.77-.1s7.19-48.33,0-96.67c5.26-50.67,3.47-82.26,3.47-82.26Z" style="fill:#FFC100"></path><path d="M369.82,245.82c-.25,14.17-1.14,34.23-3.68,58.76.54,3.63,1,7.27,1.29,10.88C349.82,286.32,345.65,240.28,369.82,245.82Z" style="opacity:0.2"></path><path d="M427.87,396.49a47.45,47.45,0,0,1-7.46-10.59s-9.27,2.28-7.45,5c3.3,4.85,4.91,14.82.66,20.16-2.43,3.05,1.41,3.56,3.95,2.25,4-2.07,3.87-2.85,6-6.28,1.79-2.93,2.5-4.08,5-5.34C430.57,400.6,429.57,398.56,427.87,396.49Z" style="fill:#263238"></path><path d="M345.16,222.33s15.61,65.6,25.45,93.62c10.34,29.42,40.75,74.83,41.85,76.78,4.06-1.09,7.68-2.51,10.09-4.86,0,0-11.58-47.11-24.65-79.06-5-66.69-21.73-86.48-21.73-86.48Z" style="fill:#FFC100"></path><path d="M303.77,160.88l0-3.91a8.11,8.11,0,0,0-1.12-4l-1.36-2.31a3.69,3.69,0,0,0-4.43-1.6l-2.52.92a3.67,3.67,0,0,0-2.18,4.76l.8,2.13s1.52,6.18,5.46,9.35l1.3-.57A7,7,0,0,0,303.77,160.88Z" style="fill:#ffb573"></path><path d="M346.44,175.89l-.41.63-.35.5-.69,1c-.46.63-.94,1.21-1.42,1.81-1,1.17-2,2.28-3.06,3.36a46.34,46.34,0,0,1-7.15,5.91,36.22,36.22,0,0,1-8.79,4.35,29.65,29.65,0,0,1-5,1.21c-.86.12-1.73.22-2.62.26-.43,0-.87.05-1.32,0h-1.16l-.51,0a9.79,9.79,0,0,1-3.43-.84,11.3,11.3,0,0,1-2.19-1.29,14.33,14.33,0,0,1-2.54-2.48A26.91,26.91,0,0,1,303,186a55.74,55.74,0,0,1-3.35-8,91.86,91.86,0,0,1-3.81-15.89,4.05,4.05,0,0,1,7.57-2.52l.07.13c2.41,4.46,4.78,9.08,7.25,13.32a58.86,58.86,0,0,0,3.79,5.89,12.24,12.24,0,0,0,1.77,2c.23.19.42.27.33.16a3.27,3.27,0,0,0-2-.72h-.19l.16,0,.31-.05a4.58,4.58,0,0,0,.63-.1c.41-.07.83-.18,1.24-.29a19.26,19.26,0,0,0,2.5-.9,26.87,26.87,0,0,0,5-3,41.92,41.92,0,0,0,4.71-4.23c.76-.77,1.48-1.6,2.19-2.41l1-1.25L333,167l.45-.56a8.06,8.06,0,0,1,13,9.45Z" style="fill:#ffb573"></path><path d="M329.32,176.37c.16,3.84-5.9,12.72,1.58,17.86-1.39,3.13-2.58,24.32.26,28.1,4.12,3,26.48,2.45,45,0,.78-7.66-3.43-23.53,1.73-48.27a9.87,9.87,0,0,0-8.67-11.84c-1.55-.15-3.2-.29-4.89-.37a126.26,126.26,0,0,0-17.73,0c-1.92.18-3.89.42-5.78.69A13.38,13.38,0,0,0,329.32,176.37Z" style="fill:#263238"></path><path d="M329.17,225.55h-.07a.51.51,0,0,1-.42-.57c3.8-26.54,28.61-55.66,40.28-63.18a.5.5,0,0,1,.69.15.49.49,0,0,1-.15.69c-11.54,7.44-36.07,36.23-39.83,62.48A.51.51,0,0,1,329.17,225.55Z" style="fill:#FFC100"></path><path d="M364.88,141.89c-1.41,5.71-2.79,15-.54,20,0,0-8.42.38-19.18,9-5.07-7.44.79-8.9.79-8.9,4.48-1,5.18-6.49,5.18-10.74Z" style="fill:#ffb573"></path><path d="M351.12,151.18,359,145.9a6.9,6.9,0,0,1-.7,3.47,14.8,14.8,0,0,1-7.57,6.78A24,24,0,0,0,351.12,151.18Z" style="opacity:0.2"></path><path d="M368.6,131.43c-2.23,9.28-3,13.25-8.47,17.24-8.27,6-18.95,1.26-19.49-8.48-.48-8.78,3.24-22.47,12.9-24.61S370.82,122.15,368.6,131.43Z" style="fill:#ffb573"></path><path d="M353.08,135.2c-.13.77-.65,1.31-1.14,1.23s-.8-.78-.66-1.55.65-1.31,1.14-1.22S353.22,134.44,353.08,135.2Z" style="fill:#263238"></path><path d="M343.67,133.68c-.13.76-.65,1.31-1.15,1.22s-.79-.78-.66-1.54.65-1.32,1.15-1.23S343.81,132.91,343.67,133.68Z" style="fill:#263238"></path><path d="M343.23,132.21l-1.75-.85S342.17,133,343.23,132.21Z" style="fill:#263238"></path><path d="M346,134.3a21.05,21.05,0,0,1-3.58,4.39,3.32,3.32,0,0,0,2.63,1Z" style="fill:#ed893e"></path><path d="M350.5,143.38a7.57,7.57,0,0,1-1.3-.12.23.23,0,1,1,.08-.45,6.12,6.12,0,0,0,5.35-1.49.23.23,0,0,1,.32,0,.22.22,0,0,1,0,.32A6.33,6.33,0,0,1,350.5,143.38Z" style="fill:#263238"></path><path d="M369.27,140.07a6.12,6.12,0,0,1-3.75,3.35c-2.12.59-3.17-1.73-2.57-4.09.54-2.12,2.29-5,4.41-4.51S370.25,138,369.27,140.07Z" style="fill:#ffb573"></path><path d="M355.78,130.88a.43.43,0,0,1-.27-.23,3.67,3.67,0,0,0-2.59-2,.47.47,0,0,1-.4-.5.46.46,0,0,1,.51-.4,4.51,4.51,0,0,1,3.29,2.54.46.46,0,0,1-.2.61A.45.45,0,0,1,355.78,130.88Z" style="fill:#263238"></path><path d="M341,129a.45.45,0,0,1-.2-.81,4.54,4.54,0,0,1,4.08-.81.46.46,0,0,1-.31.86,3.57,3.57,0,0,0-3.22.68A.48.48,0,0,1,341,129Z" style="fill:#263238"></path><path d="M352.64,133.74l-1.74-.85S351.58,134.49,352.64,133.74Z" style="fill:#263238"></path><path d="M377,178.86a122.33,122.33,0,0,0-1.64,15.9c-4.26-5.91-9.11-16.64-8.83-21.65Z" style="opacity:0.2"></path><path d="M350.62,195l-3.85-5.16-7.07,7.85s4.71,4.24,9.64,4.67l.71-1.19A6.92,6.92,0,0,0,350.62,195Z" style="fill:#ffb573"></path><path d="M339.69,189.48l-2.1,3a3.08,3.08,0,0,0,.76,4.25l1.35.94,7.07-7.85-3.35-1.45A3,3,0,0,0,339.69,189.48Z" style="fill:#ffb573"></path><path d="M378.3,168.76c.37.9.63,1.58.92,2.36s.54,1.51.8,2.27c.52,1.51,1,3,1.4,4.58a80.81,80.81,0,0,1,2,9.5c.24,1.63.44,3.29.57,5s.15,3.44.1,5.23a30,30,0,0,1-2.47,11.54l-.12.27a6.85,6.85,0,0,1-1.4,2,10.61,10.61,0,0,1-4.68,2.64,12.12,12.12,0,0,1-3.72.41,20.16,20.16,0,0,1-5.16-.92,40.44,40.44,0,0,1-7.58-3.34,68.34,68.34,0,0,1-6.43-4.1,66.75,66.75,0,0,1-5.89-4.71,4.07,4.07,0,0,1,4.11-6.84l.13.05,6.5,2.34c2.16.76,4.3,1.49,6.39,2.1a37.39,37.39,0,0,0,5.87,1.33,5.37,5.37,0,0,0,1.89,0c.13,0,.1-.12-.21-.07a3.39,3.39,0,0,0-1.61.89l-1.52,2.27a19,19,0,0,0,.48-5.87,53.15,53.15,0,0,0-1-7.46c-.55-2.57-1.19-5.19-2-7.81-.37-1.31-.79-2.62-1.2-3.92l-.64-1.94-.61-1.8-.11-.31a8.08,8.08,0,0,1,15.12-5.67Z" style="fill:#ffb573"></path><path d="M353.1,195c-2.16-2.09-2.85-1.5-4.3,0s-3.52,6.66-2,8.12,4,3.92,6.33,4,2.92-8.7,3.67-10.37S354.35,196.21,353.1,195Z" style="fill:#FFC100"></path><path d="M350.15,115.26c-.34,8.91,13.16,20.41,17.33,22.49s7.14-5.92,4.28-12.5S360.61,111.22,350.15,115.26Z" style="fill:#263238"></path><path d="M351.23,116.17a16.14,16.14,0,0,0,2.31,10.41s-5.1-3.16-6.69-7.87Z" style="fill:#263238"></path></g><g id="freepik--character-1--inject-1"><path d="M275.37,273.2c-1.58,11.35-.21,23.34-.24,35.12.65,11.62,3.36,11.47-.12,24.19l-20.87.32c-4.55-7.41-6.39-12.05-6.67-21.39-.74-25.7-3.62-94.21-3.62-94.21l18.54-.32,24.43-.41A482.65,482.65,0,0,0,275.37,273.2Z" style="fill:#263238"></path><path d="M281.76,237.51c-16,5.33-13.66,31.5-7.16,49.05a95.32,95.32,0,0,1,.76-13.36C277.22,259.78,279.62,247.35,281.76,237.51Z" style="opacity:0.2"></path><path d="M309.41,303.52c-11.49-38.69-9.35-76.58-15.35-85.52L260,217.49s6.71,26.27,13.11,52.08c3.55,14.27,6.67,28.49,9.19,37.9,2.82,10.52,6.22,11.84,12.39,26.81l20.71-5.86C316.86,314.07,315,314.75,309.41,303.52Z" style="fill:#263238"></path><path d="M271.78,403.6c-.06-19.58,8.52-39.27,1.44-68h-18.6c6.06,27.2,7.94,68.06,5.71,67.82Z" style="fill:#ff8b7b"></path><path d="M259.44,404.11c1.86-4.17,1.41-11.17,1.16-13.37-.4-3.65,13-1.51,12.62.4a98.33,98.33,0,0,0-1,16C268.65,408.22,259.44,404.11,259.44,404.11Z" style="fill:#e0e0e0"></path><path d="M322.62,403.79l8.72-8.66c-7.64-21.64-5.79-50.36-16.76-65.46l-17.71,4.17C307.8,358.38,322.62,403.79,322.62,403.79Z" style="fill:#ff8b7b"></path><path d="M321.43,402.51c.08-4.56-3.06-10.84-4.14-12.77-1.79-3.2,11.41-6.46,11.78-4.54a98.17,98.17,0,0,0,5.34,15.15C331.51,402.71,321.43,402.51,321.43,402.51Z" style="fill:#e0e0e0"></path><path d="M253.7,339.59l-1-8.79,23.12-.46v8.56A40.56,40.56,0,0,1,253.7,339.59Z" style="fill:#FFC100"></path><path d="M295.31,336.24,291.87,328l24.05-5.29,1,8.58S308.56,336.79,295.31,336.24Z" style="fill:#FFC100"></path><path d="M253.08,151.81c-.56,3-1.2,5.78-1.91,8.64s-1.46,5.7-2.32,8.54-1.76,5.68-2.81,8.53a63.83,63.83,0,0,1-3.87,8.82l-.22.4a4.5,4.5,0,0,1-.67.93,83,83,0,0,1-6.59,6.15c-2.21,1.9-4.49,3.64-6.77,5.37s-4.61,3.37-7,5-4.74,3.13-7.24,4.59a3.65,3.65,0,0,1-4.54-5.61l0,0C211.06,201,213,199,214.91,197l5.73-6c1.91-2,3.77-4,5.59-6s3.57-4,5.07-5.92l-.89,1.33a70.36,70.36,0,0,0,2.4-7.23c.74-2.61,1.43-5.29,2.1-8l2-8.18,1.93-8.17v0a7.3,7.3,0,0,1,14.28,3Z" style="fill:#ff8b7b"></path><path d="M240.92,141.86c-6,6-7.47,15.75-7.29,25.42,4.45,5,19,11.62,19,11.62a99.75,99.75,0,0,0,1.91-24.3C253.76,142.36,244.18,138.61,240.92,141.86Z" style="fill:#FFC100"></path><path d="M240.92,141.86c-6,6-7.47,15.75-7.29,25.42,4.45,5,19,11.62,19,11.62a99.75,99.75,0,0,0,1.91-24.3C253.76,142.36,244.18,138.61,240.92,141.86Z" style="fill:#fff;opacity:0.2"></path><path d="M211.88,201.5l-8.73,2.24,5.52,9.3s7.66-3,6.72-7.32Z" style="fill:#ff8b7b"></path><path d="M198.32,211.76l2.49,2.94a3.13,3.13,0,0,0,4,.66l3.88-2.32-5.52-9.3-4.41,3.58A3.12,3.12,0,0,0,198.32,211.76Z" style="fill:#ff8b7b"></path><path d="M282.48,135.51a156.2,156.2,0,0,0-36.23,3.39c-5.28,1.2-8.19,6.07-8.43,11.48-.54,12,3.08,31.85,6,66.85,4.85,5.51,29.19,7.68,50.24.77.51-6.2,1.49-36.38,3.65-65.73A15.49,15.49,0,0,0,282.48,135.51Z" style="fill:#FFC100"></path><path d="M272.46,117.18l-15.62,8.69c1.57,4.76,2.24,9.18-1.75,12.15a15.22,15.22,0,0,0-1.88,1.67c-1.47,1.52-3.83,5.56,3.3,5.12,6.45-.39,13.38-1.79,16.67-4.63a4,4,0,0,0,.75-4.7C271.28,129.47,271.6,122.78,272.46,117.18Z" style="fill:#ff8b7b"></path><path d="M267.7,119.83l-10.87,6c1.12,3.39,1.79,6.59.64,9.22,4.49-.82,9.35-4.34,10.11-8.14A23.25,23.25,0,0,0,267.7,119.83Z" style="opacity:0.2"></path><path d="M245.57,101.25c-3.18,4.52-.76,10.4,4,13.33,2.75,1.7,4.26-14.57,4.26-14.57Z" style="fill:#263238"></path><path d="M245.57,101.25c-3.18,4.52-.76,10.4,4,13.33,2.75,1.7,4.26-14.57,4.26-14.57Z" style="fill:#fff;opacity:0.1"></path><path d="M270.67,103.33c1.74,8.66,3.2,13.64.05,19.12-4.75,8.25-16.35,7.06-20.65-.93-3.88-7.18-6.08-20.13,1.39-25.67A12.17,12.17,0,0,1,270.67,103.33Z" style="fill:#ff8b7b"></path><path d="M271.09,92.09c.23-8.22-14.17-2.36-14.17-2.36s1.58-5.35-3.91-5.52c-6.13-.2-7.58,4.53-7.3,8.74-1.85-2.35-9.92-3.51-8.93,1.11s7.86,5.49,7.86,5.49-7.55,1.56-5.64,4.81c3.17,5.4,19-.57,24.47-3.22-1.36,2,.75,4.2,2.88,6.73-1.34,3.61-1,4.21-2.27,7.86s-7,1.35-9.27,3.57c-7.92,0-6.68,7.51-4.05,11.71,2.41,3.85,12.24,1,17.36-3s2.44-8.69,1.44-11.48a12.23,12.23,0,0,1-.46-4.55c.06.12.12.24.17.37a5.62,5.62,0,0,0,4-2.41C270.37,104.11,281.52,93.44,271.09,92.09Z" style="fill:#263238"></path><path d="M271.09,92.09c.23-8.22-14.17-2.36-14.17-2.36s1.58-5.35-3.91-5.52c-6.13-.2-7.58,4.53-7.3,8.74-1.85-2.35-9.92-3.51-8.93,1.11s7.86,5.49,7.86,5.49-7.55,1.56-5.64,4.81c3.17,5.4,19-.57,24.47-3.22-1.36,2,.75,4.2,2.88,6.73-1.34,3.61-1,4.21-2.27,7.86s-7,1.35-9.27,3.57c-7.92,0-6.68,7.51-4.05,11.71,2.41,3.85,12.24,1,17.36-3s2.44-8.69,1.44-11.48a12.23,12.23,0,0,1-.46-4.55c.06.12.12.24.17.37a5.62,5.62,0,0,0,4-2.41C270.37,104.11,281.52,93.44,271.09,92.09Z" style="fill:#fff;opacity:0.1"></path><path d="M256.28,124.06a6.76,6.76,0,0,1-1.35.24.21.21,0,0,1-.24-.22.26.26,0,0,1,.23-.26,6.91,6.91,0,0,0,5.15-3,.24.24,0,0,1,.33-.1.24.24,0,0,1,.07.33A7.25,7.25,0,0,1,256.28,124.06Z" style="fill:#ff8b7b"></path><path d="M276.8,111.93a8.29,8.29,0,0,1-3.44,5.25c-2.35,1.56-4.36-.46-4.39-3.24,0-2.51,1.15-6.34,3.85-6.78S277.31,109.27,276.8,111.93Z" style="fill:#ff8b7b"></path><path d="M258.19,110.78c.18.7,0,1.35-.49,1.47s-1-.35-1.16-1,0-1.35.49-1.47S258,110.09,258.19,110.78Z" style="fill:#263238"></path><path d="M250.07,113.16c.19.69,0,1.35-.49,1.46s-1-.35-1.16-1,0-1.35.49-1.47S249.89,112.46,250.07,113.16Z" style="fill:#263238"></path><path d="M252.55,113s-.13,4.23-1.36,6.61c3,.48,3.62-.35,3.62-.35Z" style="fill:#ff5652"></path><path d="M259.05,108a.44.44,0,0,0,.18-.12.43.43,0,0,0-.07-.6,4.21,4.21,0,0,0-3.76-.88.42.42,0,1,0,.26.8h0a3.39,3.39,0,0,1,3,.73A.44.44,0,0,0,259.05,108Z" style="fill:#263238"></path><path d="M245.79,110.17a.43.43,0,0,0,.33-.24,3.3,3.3,0,0,1,2.37-1.9.42.42,0,0,0,.36-.47.43.43,0,0,0-.48-.36,4.15,4.15,0,0,0-3,2.36.43.43,0,0,0,.2.57A.41.41,0,0,0,245.79,110.17Z" style="fill:#263238"></path><path d="M294.14,146.54a214.17,214.17,0,0,1-1.69,22.06c-.48,3.69-1.07,7.38-1.91,11.17-.43,1.89-.89,3.81-1.55,5.83-.33,1-.7,2-1.18,3.15a19.2,19.2,0,0,1-2.12,3.74c-.12.17-.31.39-.46.57l-.24.28-.15.15-.62.63c-.41.42-.82.79-1.23,1.16s-.83.73-1.25,1.06-.83.68-1.26,1a51.94,51.94,0,0,1-5.1,3.31,83.18,83.18,0,0,1-10.39,5c-3.5,1.39-7,2.6-10.57,3.64a109.33,109.33,0,0,1-10.81,2.66,3.63,3.63,0,0,1-2.19-6.87l.1,0c6.33-2.9,12.78-6,18.75-9.33a90.82,90.82,0,0,0,8.53-5.35,36.76,36.76,0,0,0,3.67-2.92c.29-.25.54-.51.8-.75s.52-.5.75-.75.48-.5.67-.74l.3-.37.08-.09,0,0s-.06.06-.05,0,.2-.46.37-1,.38-1.23.56-1.94c.34-1.44.66-3,.92-4.66.52-3.27.9-6.69,1.23-10.14.64-6.89,1.1-14,1.48-20.92V146a7.29,7.29,0,0,1,14.57.59Z" style="fill:#ff8b7b"></path><path d="M282.13,138.61c-5.23,6.66-5.58,15.2-5.3,28.48,3.52,3.38,16.9,8.42,16.9,8.42s5.14-15.71,4-26.52C296.59,137.73,285,135,282.13,138.61Z" style="fill:#FFC100"></path><path d="M282.13,138.61c-5.23,6.66-5.58,15.2-5.3,28.48,3.52,3.38,16.9,8.42,16.9,8.42s5.14-15.71,4-26.52C296.59,137.73,285,135,282.13,138.61Z" style="fill:#fff;opacity:0.2"></path><path d="M244,203.9l-8.36,3.37,6.69,8.5s7.2-4,5.71-8.14Z" style="fill:#ff8b7b"></path><path d="M231.87,215.86l2.84,2.58a3.13,3.13,0,0,0,4,.13l3.53-2.8-6.69-8.5-3.9,4.13A3.12,3.12,0,0,0,231.87,215.86Z" style="fill:#ff8b7b"></path><path d="M273.46,401.93l1.2,12.34a1.73,1.73,0,0,1-1.73,1.86c-5.39,0-8.8-.19-14-.27-6.1-.09-9.93.46-17.08.35-4.32-.07-5-4.29-3.16-4.83,8.71-2.6,13.55-4.37,18-9.59,0,0-2.17-4,.32-6.22s9.21-.07,9.72,2.56-.51,2.46-.51,2.46S271,399,273.46,401.93Z" style="fill:#263238"></path><path d="M330.74,394.46a3.59,3.59,0,0,1,3.4,2.17l4.5,9.94a1.75,1.75,0,0,1-1,2.32c-5.1,1.73-2.15.53-7.12,2.14-5.8,1.87-11,5.4-20,5.4-4.33,0-4.86-4.33-3.06-4.9,11.45-3.59,10.05-10.23,12.29-11.7,0,0-4.19-2.62-3.24-5.79s7.64-3.53,9.89-2.09c2.88,1.84,2,3.67,2,3.67A3.62,3.62,0,0,1,330.74,394.46Z" style="fill:#263238"></path></g></svg>